<svg xmlns="http://www.w3.org/2000/svg" xmlns:xlink="http://www.w3.org/1999/xlink" width="0" height="0" style="position:absolute">
	
		<symbol id="arrow" viewBox="0 0 42 12">
			<path fill-rule="evenodd" clip-rule="evenodd" d="M36.275.15l5.58 5.488c.193.2.193.524 0 .724l-5.58 5.488c-.193.2-.506.2-.698 0a.526.526 0 0 1 0-.725l4.736-4.612H0V5.487h40.313L35.577.875a.526.526 0 0 1 0-.725c.192-.2.505-.2.698 0z" fill="#3571E3"></path>
		</symbol>
	
		<symbol id="back" viewBox="0 0 18 14">
			<path fill-rule="evenodd" clip-rule="evenodd" d="M7.707.293a1 1 0 0 1 0 1.414L3.414 6H17a1 1 0 1 1 0 2H3.414l4.293 4.293a1 1 0 1 1-1.414 1.414l-6-6-.002-.002A.997.997 0 0 1 0 6.982c-.005-.281.092-.564.292-.764l6-5.925a1 1 0 0 1 1.414 0z" fill="#BCBCBC"></path>
		</symbol>
	
		<symbol id="checkbox" viewBox="0 0 14 12">
			<path d="M1.294 8.095l3.813 3.904h.001v-.001l7.611-7.865a1.928 1.928 0 1 0-2.772-2.681L6.32 5.202a1.697 1.697 0 0 1-2.432.008 1.697 1.697 0 0 0-2.45.026l-.171.182a1.936 1.936 0 0 0 .027 2.677z" fill="#3571E3"></path>
		</symbol>
	
		<symbol id="fb" viewBox="0 0 10 22">
			<path d="M2.401 21.016h4.14V10.999H9.3l.365-3.452H6.54l.005-1.728c0-.9.085-1.382 1.377-1.382h1.725V.984H6.886C3.568.984 2.4 2.66 2.4 5.475v2.072H.333V11h2.068v10.016z" fill="#fff"></path>
		</symbol>
	
		<symbol id="in" viewBox="0 0 17 17">
			<path d="M16.143 10.2v5.84h-3.302v-5.448c0-1.368-.476-2.303-1.672-2.303-.912 0-1.454.63-1.694 1.238-.087.218-.109.52-.109.826v5.687H6.064s.044-9.228 0-10.183h3.302V7.3c-.006.011-.016.022-.022.033h.022V7.3c.439-.692 1.222-1.682 2.976-1.682 2.172 0 3.801 1.455 3.801 4.582zM2.61.948C1.48.948.74 1.708.74 2.708c0 .977.718 1.76 1.825 1.76h.022c1.151 0 1.867-.783 1.867-1.76-.021-1-.716-1.76-1.845-1.76zM.937 16.04h3.301V5.857h-3.3V16.04z" fill="#F2F2F2"></path>
		</symbol>
	
		<symbol id="particle-4" viewBox="0 0 94 94">
			<path d="M9.832 36.691a37.985 37.985 0 1 0 36.69-28.154v16.979a21.007 21.007 0 1 1-20.29 15.57l-16.4-4.395z" fill="#3571E3"></path>
		</symbol>
	
		<symbol id="quote" viewBox="0 0 46 40">
			<path d="M46 8.227c-2.84 1.04-5.017 2.648-6.53 4.823-1.42 2.175-2.13 4.775-2.13 7.801H46V40H28.253V20.851c0-2.648.473-5.106 1.42-7.376.946-2.27 2.224-4.255 3.833-5.957a23.265 23.265 0 0 1 5.537-4.54A35.039 35.039 0 0 1 46 0v8.227zm-28.253 0c-2.84 1.04-5.017 2.648-6.53 4.823-1.42 2.175-2.13 4.775-2.13 7.801h8.66V40H0V20.851c0-2.648.473-5.106 1.42-7.376.946-2.27 2.224-4.255 3.833-5.957a23.267 23.267 0 0 1 5.537-4.54A35.039 35.039 0 0 1 17.747 0v8.227z" fill="gray"></path>
		</symbol>
	
		<symbol id="searcher" viewBox="0 0 24 24">
			<path fill-rule="evenodd" clip-rule="evenodd" d="M22.282 21.218l-7.5-7.5a7.5 7.5 0 1 0-1.065 1.065l7.5 7.5 1.066-1.065zM3 9a6 6 0 1 1 12 0A6 6 0 0 1 3 9z" fill="#BCBCBC"></path>
		</symbol>
	
</svg>
