<svg width="17" height="17" viewBox="0 0 17 17" fill="none" xmlns="http://www.w3.org/2000/svg">
<path d="M16.143 10.2003V16.04H12.8412V10.5917C12.8412 9.22367 12.3645 8.28945 11.169 8.28945C10.2567 8.28945 9.71468 8.91841 9.47533 9.52742C9.38841 9.74507 9.366 10.0473 9.366 10.3526V16.0397H6.06393C6.06393 16.0397 6.10825 6.81212 6.06393 5.85694H9.36625V7.29993C9.3596 7.31129 9.35024 7.3224 9.34433 7.33326H9.36625V7.29993C9.80505 6.6076 10.5876 5.61783 12.3421 5.61783C14.5144 5.61783 16.143 7.07319 16.143 10.2003ZM2.60968 0.948486C1.48018 0.948486 0.741211 1.70874 0.741211 2.7076C0.741211 3.68525 1.45875 4.46747 2.56634 4.46747H2.58776C3.73942 4.46747 4.45549 3.68525 4.45549 2.7076C4.43358 1.70874 3.73942 0.948486 2.60968 0.948486ZM0.937464 16.04H4.23831V5.85694H0.937464V16.04Z" fill="#F2F2F2"/>
</svg>
