<svg width="94" height="94" viewBox="0 0 94 94" fill="none" xmlns="http://www.w3.org/2000/svg">
<path d="M9.83163 36.6913C7.77742 44.3577 8.1762 52.475 10.972 59.9031C13.7677 67.3313 18.82 73.6971 25.4192 78.1066C32.0185 82.5161 39.8332 84.7477 47.7658 84.488C55.6984 84.2283 63.3504 81.4904 69.6471 76.6587C75.9438 71.8271 80.569 65.1444 82.8729 57.5494C85.1768 49.9543 85.0439 41.8283 82.4927 34.3126C79.9414 26.797 75.1001 20.2693 68.6487 15.6462C62.1973 11.0232 54.4598 8.53709 46.5229 8.53709L46.5229 25.5158C50.9122 25.5158 55.1912 26.8907 58.759 29.4473C62.3268 32.004 65.0041 35.614 66.415 39.7703C67.8259 43.9266 67.8994 48.4204 66.6253 52.6207C65.3511 56.8209 62.7933 60.5166 59.3111 63.1886C55.8289 65.8606 51.5972 67.3747 47.2102 67.5184C42.8233 67.662 38.5016 66.4278 34.8521 63.9893C31.2026 61.5508 28.4086 58.0303 26.8624 53.9224C25.3163 49.8145 25.0958 45.3254 26.2318 41.0857L9.83163 36.6913Z" fill="#3571E3"/>
</svg>
