<svg width="46" height="40" viewBox="0 0 46 40" fill="none" xmlns="http://www.w3.org/2000/svg">
<path d="M46 8.22695C43.1605 9.26714 40.9835 10.8747 39.4691 13.0496C38.0494 15.2246 37.3395 17.8251 37.3395 20.8511H46V40H28.2531V20.8511C28.2531 18.2033 28.7263 15.7447 29.6728 13.4752C30.6193 11.2057 31.8971 9.21986 33.5062 7.51774C35.1152 5.72105 36.9609 4.20804 39.0432 2.97873C41.2202 1.74941 43.5391 0.756503 46 0V8.22695ZM17.7469 8.22695C14.9074 9.26714 12.7305 10.8747 11.2161 13.0496C9.7963 15.2246 9.08642 17.8251 9.08642 20.8511H17.7469V40H0V20.8511C0 18.2033 0.473251 15.7447 1.41975 13.4752C2.36626 11.2057 3.64403 9.21986 5.25309 7.51774C6.86214 5.72105 8.70782 4.20804 10.7901 2.97873C12.9671 1.74941 15.286 0.756503 17.7469 0V8.22695Z" fill="#808080"/>
</svg>
