<svg width="24" height="24" viewBox="0 0 24 24" fill="none" xmlns="http://www.w3.org/2000/svg">
<path fill-rule="evenodd" clip-rule="evenodd" d="M22.2825 21.2176L14.7825 13.7176C17.3099 10.6229 16.9673 6.09018 14.0035 3.41046C11.0398 0.730744 6.49554 0.845031 3.67022 3.67035C0.844909 6.49566 0.730622 11.0399 3.41034 14.0037C6.09006 16.9674 10.6228 17.31 13.7175 14.7826L21.2175 22.2826L22.2825 21.2176ZM3.00001 9.00015C3.00001 5.68644 5.6863 3.00015 9.00001 3.00015C12.3137 3.00015 15 5.68644 15 9.00015C15 12.3139 12.3137 15.0001 9.00001 15.0001C7.40871 15.0001 5.88259 14.368 4.75737 13.2428C3.63215 12.1176 3.00001 10.5914 3.00001 9.00015Z" fill="#BCBCBC"/>
</svg>
